<?xml version="1.0" encoding="UTF-8"?>
<svg version="1.1" xmlns="http://www.w3.org/2000/svg" width="536" height="536">
<path d="M0 0 C176.88 0 353.76 0 536 0 C536 176.88 536 353.76 536 536 C359.12 536 182.24 536 0 536 C0 359.12 0 182.24 0 0 Z " fill="#FCD343" transform="translate(0,0)"/>
<path d="M0 0 C1.56760287 1.19270605 1.56760287 1.19270605 3.10029221 2.7255621 C3.68998346 3.30804681 4.27967472 3.89053152 4.8872354 4.49066728 C5.5253724 5.13617857 6.1635094 5.78168985 6.82098389 6.44676208 C7.50635483 7.12815862 8.19172577 7.80955516 8.89786553 8.51160008 C11.20050663 10.80459013 13.49223758 13.10818466 15.78417969 15.41186523 C17.42943928 17.05469784 19.07534422 18.69688436 20.72184753 20.33847046 C25.1974301 24.80462893 29.66351961 29.28017129 34.12773418 33.75768924 C38.32038266 37.96048673 42.51932345 42.15698141 46.7180014 46.35375393 C55.03556821 54.66813027 63.34568203 62.9899168 71.65185547 71.31567383 C79.71836441 79.40119638 87.79081926 87.48072285 95.86962891 95.55395508 C104.66175612 104.34003039 113.45076653 113.12920044 122.23417783 121.92398983 C126.88580943 126.58161654 131.53859665 131.23807105 136.19454193 135.89138603 C140.56903388 140.26400109 144.9385292 144.64154799 149.30413246 149.02303696 C150.91172167 150.63488611 152.5210331 152.24501961 154.13213921 153.8533535 C156.32172626 156.0397428 158.50511776 158.23213108 160.68695068 160.42625427 C161.33401057 161.06953484 161.98107046 161.7128154 162.64773822 162.37558931 C167 166.77167118 167 166.77167118 167 169 C156.39648897 173.00173891 145.79224267 177.00152616 135.1875 181 C134.39859249 181.2974688 133.60968498 181.59493759 132.79687119 181.90142059 C113.48378153 189.18335322 94.16590139 196.45071875 74.8125 203.625 C61.22450466 208.66332242 47.66419454 213.76945097 34.125 218.9375 C32.41089421 219.5914045 30.69678291 220.24529453 28.98266602 220.89916992 C21.61426696 223.7106245 14.24638373 226.52341913 6.87988281 229.33984375 C1.67905035 231.32759951 -3.52406722 233.30927699 -8.72857666 235.28738403 C-10.72655306 236.04792114 -12.72376052 236.81048171 -14.72015381 237.57516479 C-17.49378735 238.63731952 -20.26998638 239.69248389 -23.046875 240.74609375 C-23.86678925 241.06195435 -24.68670349 241.37781494 -25.53146362 241.70324707 C-29.68444106 243.27035896 -33.56235416 244.46061028 -38 245 C-38.556875 244.2575 -39.11375 243.515 -39.6875 242.75 C-41.85455815 239.98508231 -41.85455815 239.98508231 -44.375 238.125 C-47.09805327 235.92062355 -49.16812695 233.58107183 -51.375 230.87890625 C-53.46601314 228.46117231 -55.73302593 226.25375161 -58 224 C-98 184 -138 144 -178 104 C-176.31963538 100.63927076 -172.45461106 100.16121863 -169.0703125 98.97265625 C-168.23504532 98.67248093 -167.39977814 98.3723056 -166.53919983 98.06303406 C-164.70799716 97.40556168 -162.87564655 96.75128022 -161.04232788 96.09973145 C-156.00054234 94.30716691 -150.96756467 92.49015051 -145.93359375 90.67578125 C-144.87338516 90.29428925 -143.81317657 89.91279724 -142.72084045 89.51974487 C-132.22514452 85.73634088 -121.77343158 81.83833956 -111.32553101 77.92526245 C-89.15317104 69.62122018 -66.92554859 61.47792021 -44.66674805 53.40917969 C-43.54368256 53.0020575 -42.42061707 52.5949353 -41.26351929 52.17547607 C-39.17251702 51.41779044 -37.0813245 50.66062952 -34.98989868 49.90411377 C-34.05197479 49.56450623 -33.1140509 49.22489868 -32.14770508 48.875 C-31.26877594 48.55917969 -30.3898468 48.24335937 -29.48428345 47.91796875 C-27.87309823 47.32261894 -26.27108689 46.7015767 -24.68148804 46.05078125 C-18.65014395 43.59501066 -18.65014395 43.59501066 -15 45 C-13.80045384 46.39947052 -12.60842527 47.80696262 -11.4765625 49.26171875 C-9.83129258 51.19861059 -8.05587663 52.78619045 -6.125 54.4375 C-3.33688474 56.82276971 -0.62668341 59.24962266 2 61.8125 C2.86625 62.65748047 2.86625 62.65748047 3.75 63.51953125 C5 65 5 65 5 67 C5.59554688 67.25652344 6.19109375 67.51304688 6.8046875 67.77734375 C9.19696371 69.10969687 10.42728199 70.43368605 12.125 72.5625 C14.20903634 75.21025666 14.20903634 75.21025666 17 77 C17 77.66 17 78.32 17 79 C17.59554688 79.25652344 18.19109375 79.51304688 18.8046875 79.77734375 C21.19696371 81.10969687 22.42728199 82.43368605 24.125 84.5625 C26.20903634 87.21025666 26.20903634 87.21025666 29 89 C29 89.66 29 90.32 29 91 C29.99 91.33 30.98 91.66 32 92 C35.22506216 94.94049785 38.05058092 98.18482706 40.94116211 101.45117188 C45.84864807 106.90861395 50.99523199 112.09768941 56.21136665 117.25596619 C57.85739334 118.88429643 59.49958865 120.51640744 61.14085388 122.14953613 C65.79929008 126.78375585 70.46368806 131.41194331 75.13208008 136.03613281 C78.00603656 138.88339318 80.87517115 141.73543826 83.74134636 144.5905304 C84.83076218 145.67373243 85.92207252 146.75503249 87.01529121 147.83439636 C88.53238141 149.33238498 90.04331673 150.83632775 91.55297852 152.34179688 C92.4140773 153.19543823 93.27517609 154.04907959 94.16236877 154.92858887 C96 157 96 157 96 159 C95.01233643 159.35078613 94.02467285 159.70157227 93.00708008 160.06298828 C70.81438127 167.95306626 48.71765114 176.05728751 26.70996094 184.44909668 C21.45358127 186.45181407 16.19015341 188.43505659 10.921875 190.40625 C10.19048813 190.67992401 9.45910126 190.95359802 8.70555115 191.23556519 C5.90761804 192.28197535 3.10945621 193.32776482 0.31057739 194.37164307 C-1.56803499 195.07235326 -3.44613531 195.77443583 -5.32421875 196.4765625 C-7.03810791 197.11513184 -7.03810791 197.11513184 -8.78662109 197.76660156 C-12.54633784 199.20970208 -16.24494055 200.77663026 -19.92504883 202.41162109 C-22.44220562 203.12539305 -23.54328063 202.84978059 -26 202 C-27.63391018 200.73802662 -27.63391018 200.73802662 -29.25669861 199.11079407 C-29.87761887 198.49544296 -30.49853912 197.88009186 -31.13827515 197.24609375 C-31.80799347 196.56716064 -32.47771179 195.88822754 -33.16772461 195.1887207 C-33.88204147 194.47644821 -34.59635834 193.76417572 -35.33232117 193.03031921 C-37.69631897 190.66933389 -40.04938568 188.29776498 -42.40234375 185.92578125 C-44.04316356 184.28190346 -45.6845751 182.63861609 -47.32655334 180.99589539 C-50.77006071 177.54778137 -54.20859506 174.09481095 -57.64331055 170.63793945 C-62.03918341 166.21385084 -66.44362356 161.79842163 -70.85138607 157.38618183 C-74.24312491 153.99027746 -77.63202326 150.59155108 -81.01989937 147.19179344 C-82.64250444 145.56350228 -84.26557136 143.93567122 -85.88911247 142.30831337 C-88.16298112 140.02754074 -90.43343936 137.74342875 -92.70288086 135.45825195 C-93.37057495 134.78944 -94.03826904 134.12062805 -94.72619629 133.43154907 C-97.54359726 130.58835568 -100.2726096 127.73962954 -102.8115387 124.64323425 C-104.75127402 122.30041246 -106.5843704 120.78935526 -109 119 C-109 118.34 -109 117.68 -109 117 C-105.92335374 115.79463757 -102.83781732 114.61391806 -99.75 113.4375 C-98.87730469 113.09525391 -98.00460938 112.75300781 -97.10546875 112.40039062 C-95.83896484 111.92182617 -95.83896484 111.92182617 -94.546875 111.43359375 C-93.77182617 111.13509521 -92.99677734 110.83659668 -92.19824219 110.52905273 C-89.64286363 109.9140477 -88.42520134 110.01192088 -86 111 C-84.29589844 112.37939453 -84.29589844 112.37939453 -82.609375 114.1328125 C-81.66771484 115.09574219 -81.66771484 115.09574219 -80.70703125 116.078125 C-80.06121094 116.75359375 -79.41539062 117.4290625 -78.75 118.125 C-77.47660365 119.44266575 -76.20055699 120.75777539 -74.921875 122.0703125 C-74.36081055 122.65570801 -73.79974609 123.24110352 -73.22167969 123.84423828 C-71.33275235 125.67712052 -69.40496241 127.37675279 -67.40576172 129.08544922 C-62.68902977 133.18490214 -58.35395303 137.62223148 -54.00373459 142.10449219 C-51.54443708 144.63353883 -49.06748744 147.14524662 -46.59375 149.66015625 C-43.46588472 152.84208374 -40.34356779 156.02895787 -37.23925781 159.23388672 C-34.7099842 161.84421083 -32.16400919 164.43715206 -29.60594559 167.01925659 C-28.63876989 168.00185082 -27.67791196 168.99070623 -26.72367477 169.98587036 C-25.39388332 171.37110953 -24.03994443 172.73304532 -22.68505859 174.09375 C-21.92309174 174.87427734 -21.16112488 175.65480469 -20.37606812 176.45898438 C-18.06749638 178.28057599 -18.06749638 178.28057599 -15.11198425 177.88694763 C-11.84918344 176.95701572 -8.69826667 175.91261078 -5.52319336 174.71508789 C-4.90612015 174.48406876 -4.28904694 174.25304962 -3.65327454 174.01502991 C-1.63012694 173.25611755 0.38999505 172.48947879 2.41015625 171.72265625 C3.82432378 171.19032643 5.23866898 170.65846841 6.65318298 170.12705994 C10.36681504 168.73039705 14.07789856 167.32708063 17.78851318 165.92242432 C21.55857361 164.4967491 25.3312 163.07789761 29.10351562 161.65820312 C34.62111529 159.58019091 40.13804487 157.50041848 45.65258789 155.41430664 C46.76034073 154.99540665 47.86809357 154.57650665 49.00941467 154.14491272 C51.68348772 153.12117325 54.34491248 152.07187016 57 151 C56.18567505 150.19011627 55.3713501 149.38023254 54.53234863 148.54580688 C46.87475011 140.92867664 39.22238095 133.30632785 31.57515717 125.67878151 C27.64307311 121.75715373 23.70914236 117.83741575 19.77099609 113.921875 C15.97358662 110.14612823 12.18102274 106.36557746 8.39183044 102.58158493 C6.94222576 101.13568785 5.49085631 99.69155793 4.03773499 98.2491951 C2.00944823 96.23533584 -0.01258482 94.21539679 -2.03320312 92.19384766 C-2.64100113 91.5932402 -3.24879913 90.99263275 -3.87501526 90.37382507 C-8 86.22810432 -8 86.22810432 -8 84 C-8.556875 83.773125 -9.11375 83.54625 -9.6875 83.3125 C-13.30530518 81.25915111 -15.94651981 78.26779111 -18.59375 75.08203125 C-19.1609375 74.43621094 -19.728125 73.79039063 -20.3125 73.125 C-20.82425781 72.50882812 -21.33601563 71.89265625 -21.86328125 71.2578125 C-25.18654911 69.30151954 -28.38004522 70.25546501 -32 71 C-35.26598669 71.96432146 -38.43218914 73.14690949 -41.61328125 74.359375 C-42.52818832 74.70006516 -43.4430954 75.04075531 -44.38572693 75.39176941 C-47.36442091 76.50307765 -50.33841254 77.62642873 -53.3125 78.75 C-55.38608491 79.52629605 -57.45998148 80.30176012 -59.53417969 81.07641602 C-63.71459968 82.63881553 -67.89334519 84.20557126 -72.07080078 85.77587891 C-77.34214977 87.75583039 -82.62003882 89.7174585 -87.90234375 91.66796875 C-104.98726487 97.97926959 -122.02309023 104.40252073 -139 111 C-139.21917022 113.17639244 -139.21917022 113.17639244 -137.31332397 114.93277168 C-136.51689484 115.72735723 -135.7204657 116.52194279 -134.89990234 117.34060669 C-133.99117371 118.25208466 -133.08244507 119.16356262 -132.1461792 120.10266113 C-131.12619038 121.11557091 -130.10610659 122.12838506 -129.0859375 123.14111328 C-128.02148225 124.20500474 -126.95746651 125.26933609 -125.89385986 126.33407593 C-122.99758823 129.23092333 -120.0951746 132.12154656 -117.19165802 135.01112986 C-114.16116076 138.02915691 -111.13629539 141.05281757 -108.11083984 144.07589722 C-102.37744766 149.80306369 -96.63897456 155.52511127 -90.89867973 161.24535835 C-84.36525071 167.75646225 -77.83747397 174.27322022 -71.31017685 180.79047036 C-57.87975164 194.19996888 -44.44220892 207.60231449 -31 221 C-29.55566513 220.52089834 -28.11153025 220.04119377 -26.66748047 219.56123352 C-25.86325653 219.29416249 -25.05903259 219.02709146 -24.23043823 218.75192738 C-21.83864662 217.9456044 -19.47790055 217.08144471 -17.125 216.16796875 C-16.28324219 215.84376953 -15.44148438 215.51957031 -14.57421875 215.18554688 C-12.88918903 214.53224628 -11.20428808 213.8786134 -9.51953125 213.22460938 C-4.88528195 211.44031823 -0.23604488 209.72225358 4.45411682 208.08985901 C16.16726747 204.01170482 27.74601815 199.58839639 39.33456421 195.17077637 C45.07726333 192.98214125 50.82240795 190.79995196 56.56759834 188.61786652 C57.87246415 188.12225259 59.17730802 187.62658092 60.48213005 187.13085175 C73.00113288 182.37467945 85.52675301 177.63625198 98.06271362 172.92492676 C100.13189064 172.14691151 102.20068311 171.36787273 104.26907349 170.58776855 C107.13018965 169.50891287 109.99262465 168.43363558 112.85546875 167.359375 C113.68515167 167.04581055 114.51483459 166.73224609 115.36965942 166.40917969 C119.87156504 164.72532819 124.3588331 163.25208971 129 162 C123.67183586 155.70875743 117.98672075 149.84416549 112.15258789 144.02319336 C111.1791203 143.04836756 110.20586488 142.07332986 109.23280334 141.09809875 C106.61111961 138.47189059 103.9863241 135.84881405 101.36078572 133.22646022 C98.60038149 130.46860554 95.84243816 127.70829153 93.08409119 124.94837952 C88.45344562 120.3159198 83.8207075 115.68556063 79.18676758 111.05639648 C73.84590659 105.72097665 68.50865732 100.3819642 63.17326933 95.04107183 C58.57446521 90.43771506 53.97369688 85.83632821 49.37131113 81.2365523 C46.6303329 78.49712503 43.89001553 75.75704586 41.15147591 73.01518059 C38.57556757 70.43636216 35.9971843 67.86004306 33.41695213 65.28555107 C32.03089239 63.9014225 30.6472625 62.51486198 29.26373291 61.12820435 C24.8677625 56.74695068 20.41823363 52.50282518 15.69222164 48.47802067 C14.04356857 47.03805367 12.45721454 45.63490307 11 44 C11 43.34 11 42.68 11 42 C10.4534375 41.79117188 9.906875 41.58234375 9.34375 41.3671875 C6.13698878 39.49657679 3.92576191 36.88124718 1.5 34.125 C-0.32773445 32.07813663 -2.16215484 30.03784596 -4 28 C-4.6496875 27.19304687 -5.299375 26.38609375 -5.96875 25.5546875 C-7.94135643 23.67817004 -7.94135643 23.67817004 -10.74897766 24.27215576 C-13.97937658 24.9953828 -16.94518209 25.93943611 -20.04760742 27.09082031 C-21.22011551 27.52320007 -22.3926236 27.95557983 -23.60066223 28.40106201 C-24.87315487 28.87659681 -26.14558869 29.35228905 -27.41796875 29.828125 C-28.75621622 30.3242281 -30.09461344 30.81992739 -31.43315125 31.31524658 C-35.62509797 32.86883785 -39.81282014 34.43361553 -44 36 C-45.31364987 36.49083027 -46.62730932 36.98163488 -47.940979 37.47241211 C-55.72081239 40.38039074 -63.49533554 43.30241349 -71.26849365 46.22817993 C-91.38796898 53.80059607 -111.51860213 61.3352882 -131.72772217 68.66592407 C-148.93950959 74.91402027 -166.04261992 81.44539122 -183.13623047 88.0090332 C-184.17887558 88.40802826 -185.22152069 88.80702332 -186.29576111 89.21810913 C-188.26377197 89.97124962 -190.23075089 90.72709372 -192.19654846 91.48599243 C-193.06682175 91.81860077 -193.93709503 92.15120911 -194.83374023 92.49389648 C-195.97394875 92.93233131 -195.97394875 92.93233131 -197.13719177 93.37962341 C-199 94 -199 94 -201 94 C-201.1756398 94.60821594 -201.3512796 95.21643188 -201.53224182 95.84307861 C-203.31608489 101.91721451 -205.326665 107.86240895 -207.52734375 113.796875 C-207.86789795 114.72259308 -208.20845215 115.64831116 -208.55932617 116.6020813 C-209.68242772 119.6524864 -210.80988886 122.70125933 -211.9375 125.75 C-212.73987653 127.92586591 -213.5420366 130.10181166 -214.34399414 132.27783203 C-216.4640128 138.02721303 -218.58819217 143.77504703 -220.71386719 149.52233887 C-221.97520887 152.9329656 -223.23576267 156.34388252 -224.49609375 159.75488281 C-232.10646341 180.3491662 -239.72953233 200.93862212 -247.41796875 221.50390625 C-248.30021527 223.86539576 -249.18245816 226.22688663 -250.06469727 228.58837891 C-251.73518657 233.0593027 -253.40935849 237.52882374 -255.08569336 241.99755859 C-255.84109836 244.01786054 -256.59639412 246.03820334 -257.3515625 248.05859375 C-257.69330002 248.96646133 -258.03503754 249.87432892 -258.38713074 250.80970764 C-258.70362076 251.65810715 -259.02011078 252.50650665 -259.34619141 253.38061523 C-259.61895905 254.10820541 -259.89172668 254.83579559 -260.17276001 255.58543396 C-261.23675413 258.69104309 -262.1173243 261.83871356 -263 265 C-255.21444743 272.80868919 -247.4262212 280.61470066 -239.63453865 288.41727352 C-236.01691262 292.04012548 -232.40022569 295.66390483 -228.78564453 299.28979492 C-225.29950067 302.78677792 -221.8109431 306.28133593 -218.3206749 309.77420235 C-216.98730491 311.10942472 -215.65481759 312.44552911 -214.32321548 313.78251457 C-212.46273732 315.65021674 -210.59918885 317.51480151 -208.73486328 319.37866211 C-207.90408264 320.21483566 -207.90408264 320.21483566 -207.05651855 321.06790161 C-204.29264682 323.88326231 -204.29264682 323.88326231 -201 326 C-201 326.66 -201 327.32 -201 328 C-200.40445375 328.27036796 -199.80890751 328.54073591 -199.19531441 328.81929684 C-197.01622271 329.99127496 -195.61026016 331.14526612 -193.87496948 332.89125061 C-192.9875708 333.77669304 -192.9875708 333.77669304 -192.08224487 334.68002319 C-191.12670212 335.64870834 -191.12670212 335.64870834 -190.15185547 336.63696289 C-189.47173401 337.31839859 -188.79161255 337.99983429 -188.09088135 338.70191956 C-185.84501851 340.95427104 -183.60621116 343.21350775 -181.3671875 345.47265625 C-179.80878722 347.03732641 -178.24987103 348.60148287 -176.69046021 350.16514587 C-172.58690788 354.28200313 -168.48895899 358.40438958 -164.39257812 362.52838135 C-157.8295301 369.1345487 -151.25974689 375.73400142 -144.68674088 382.33025932 C-142.38764035 384.6396122 -140.09196636 386.95233207 -137.79660034 389.26539612 C-136.39429986 390.67452189 -134.99189086 392.08353968 -133.58935547 393.49243164 C-132.9482785 394.14024597 -132.30720154 394.7880603 -131.646698 395.45550537 C-128.61745792 398.6126254 -128.61745792 398.6126254 -125 401 C-124.8255838 400.39078705 -124.6511676 399.7815741 -124.47146606 399.15390015 C-122.69711034 393.08306202 -120.65194881 387.18473089 -118.3671875 381.2890625 C-118.01806808 380.37948792 -117.66894867 379.46991333 -117.30924988 378.53277588 C-116.16800374 375.56215601 -115.02154895 372.59357674 -113.875 369.625 C-113.07058191 367.53413242 -112.2664689 365.44314744 -111.46264648 363.35205078 C-108.98060379 356.89923824 -106.49132148 350.44923503 -104 344 C-103.61084412 342.99251709 -103.22168823 341.98503418 -102.82073975 340.94702148 C-99.88044221 333.33588603 -96.9387523 325.7252884 -93.99502563 318.11547852 C-89.48767335 306.46327032 -84.9974957 294.80496071 -80.5625 283.125 C-80.1197876 281.96081543 -79.6770752 280.79663086 -79.22094727 279.59716797 C-78.81932373 278.53643066 -78.4177002 277.47569336 -78.00390625 276.3828125 C-77.66174072 275.47934082 -77.3195752 274.57586914 -76.96704102 273.64501953 C-75.92000903 270.78121126 -74.95929477 267.89422699 -74 265 C-74.55266037 264.44733963 -75.10532074 263.89467926 -75.67472839 263.32527161 C-119 220 -119 220 -121.68037415 217.31181335 C-123.03807922 215.95868103 -124.40956594 214.61867999 -125.8125 213.3125 C-127 212 -127 212 -127 210 C-127.99 209.67 -128.98 209.34 -130 209 C-131.35827971 207.35360035 -132.69254251 205.68704193 -134 204 C-134.66 203.67 -135.32 203.34 -136 203 C-136 202.34 -136 201.68 -136 201 C-136.66 201 -137.32 201 -138 201 C-138 200.34 -138 199.68 -138 199 C-138.57300842 198.75165405 -139.14601685 198.50330811 -139.73638916 198.24743652 C-142.34615789 196.80923841 -144.108329 195.14579485 -146.21777344 193.04101562 C-147.03832214 192.22677124 -147.85887085 191.41252686 -148.70428467 190.5736084 C-149.58046448 189.69338013 -150.45664429 188.81315186 -151.359375 187.90625 C-152.26375305 187.0037854 -153.1681311 186.1013208 -154.09991455 185.17150879 C-156.00873491 183.26404896 -157.91540549 181.35469588 -159.81884766 179.44189453 C-162.26237881 176.98693691 -164.71482235 174.54111007 -167.17004013 172.09784698 C-169.50883913 169.76799406 -171.84002493 167.43055469 -174.171875 165.09375 C-175.05615173 164.21352173 -175.94042847 163.33329346 -176.85150146 162.4263916 C-178.06341156 161.20502502 -178.06341156 161.20502502 -179.29980469 159.95898438 C-180.01610046 159.24109741 -180.73239624 158.52321045 -181.47039795 157.78356934 C-183 156 -183 156 -183 154 C-183.66 154 -184.32 154 -185 154 C-185.23847656 155.23105469 -185.47695312 156.46210938 -185.72265625 157.73046875 C-187.07975152 163.79796755 -189.2508222 169.5023472 -191.4375 175.3125 C-192.15344498 177.23555296 -192.86711148 179.15944295 -193.58073425 181.08335876 C-194.11622247 182.52668658 -194.65239236 183.96976162 -195.18916321 185.41261292 C-197.78059867 192.38507059 -200.33378388 199.37131856 -202.8828125 206.359375 C-203.30802689 207.52498459 -203.73324127 208.69059418 -204.17134094 209.89152527 C-205.89965518 214.63023869 -207.62741253 219.36915509 -209.35519409 224.10806274 C-210.58111312 227.46944601 -211.80803721 230.83046091 -213.03515625 234.19140625 C-213.40557037 235.20793274 -213.7759845 236.22445923 -214.15762329 237.27178955 C-214.50271942 238.21665222 -214.84781555 239.16151489 -215.20336914 240.13500977 C-215.50328262 240.95719498 -215.80319611 241.77938019 -216.11219788 242.6264801 C-217 245 -217 245 -218.17478943 247.55406189 C-219.12250597 250.36310978 -218.98597848 251.25891552 -218 254 C-216.68556554 255.75953984 -216.68556554 255.75953984 -214.96998596 257.40423584 C-214.32361176 258.05762436 -213.67723755 258.71101288 -213.01127625 259.38420105 C-211.94137199 260.44263969 -211.94137199 260.44263969 -210.84985352 261.52246094 C-210.10189514 262.27406998 -209.35393677 263.02567902 -208.58331299 263.80006409 C-206.10586006 266.28563176 -203.61769952 268.76016634 -201.12890625 271.234375 C-199.40825673 272.95450611 -197.68812474 274.67515506 -195.9684906 276.39630127 C-192.36251962 280.00218249 -188.75142983 283.60283321 -185.13647461 287.19970703 C-180.49272024 291.82074882 -175.86014643 296.45280822 -171.23111057 301.08858871 C-167.68086483 304.64216813 -164.12566498 308.19075598 -160.56883049 311.73773956 C-158.85818693 313.44452235 -157.14890376 315.15266968 -155.44098091 316.86217499 C-153.0587276 319.24479723 -150.67011139 321.62084382 -148.27954102 323.99511719 C-147.56829575 324.70883987 -146.85705048 325.42256256 -146.12425232 326.15791321 C-145.47505829 326.80002243 -144.82586426 327.44213165 -144.15699768 328.10369873 C-143.59231561 328.66632793 -143.02763353 329.22895714 -142.44583988 329.80863571 C-141.05498974 331.21197372 -141.05498974 331.21197372 -139 331 C-136.30922578 323.95368908 -133.62200355 316.90603117 -130.93725586 309.85742188 C-130.02336201 307.45932288 -129.10865306 305.06153435 -128.19311523 302.6640625 C-126.8779035 299.21956217 -125.56561936 295.77395892 -124.25390625 292.328125 C-123.84346573 291.25508118 -123.43302521 290.18203735 -123.01014709 289.07647705 C-122.43966896 287.57537384 -122.43966896 287.57537384 -121.85766602 286.04394531 C-121.52235367 285.16458313 -121.18704132 284.28522095 -120.84156799 283.37921143 C-120.56385056 282.59407166 -120.28613312 281.80893188 -120 281 C-119.70312286 280.34156601 -119.40624573 279.68313202 -119.10037231 279.00474548 C-118.77457372 276.76691129 -118.77457372 276.76691129 -120.80244446 274.58955383 C-121.70464218 273.69544296 -122.6068399 272.80133209 -123.53637695 271.88012695 C-124.03045044 271.38371704 -124.52452393 270.88730713 -125.03356934 270.37585449 C-126.67340737 268.73439865 -128.33039134 267.11148644 -129.98828125 265.48828125 C-131.12936747 264.35398201 -132.26942554 263.2186476 -133.40849304 262.08232117 C-135.79968319 259.70182004 -138.19865989 257.32957249 -140.60424805 254.96362305 C-143.69152484 251.92721419 -146.76580164 248.87807395 -149.83520222 245.82360554 C-152.75734456 242.91624264 -155.68468402 240.01414034 -158.61328125 237.11328125 C-159.17418268 236.55729059 -159.73508411 236.00129993 -160.31298256 235.42846107 C-161.89767976 233.86001161 -163.48588381 232.29521309 -165.07543945 230.73168945 C-165.98002396 229.83996536 -166.88460846 228.94824127 -167.81660461 228.02949524 C-169.82859389 225.96845975 -169.82859389 225.96845975 -172 225 C-172.19335938 225.59167969 -172.38671875 226.18335938 -172.5859375 226.79296875 C-172.84632813 227.58316406 -173.10671875 228.37335938 -173.375 229.1875 C-173.64570313 230.00992188 -173.91640625 230.83234375 -174.1953125 231.6796875 C-175 234 -175 234 -176.25 236.8125 C-177.15857202 239.46250173 -176.95028884 240.39073171 -176 243 C-174.46962254 244.96331345 -174.46962254 244.96331345 -172.48999023 246.85058594 C-171.3789518 247.96128448 -171.3789518 247.96128448 -170.24546814 249.09442139 C-169.44129959 249.88310608 -168.63713104 250.67179077 -167.80859375 251.484375 C-166.98875504 252.29996887 -166.16891632 253.11556274 -165.32423401 253.95587158 C-162.70227238 256.56103106 -160.07007552 259.15557079 -157.4375 261.75 C-155.65882155 263.51363369 -153.88081808 265.2779484 -152.10351562 267.04296875 C-147.74347208 271.36992248 -143.37421992 275.68737991 -139 280 C-141.64 286.93 -144.28 293.86 -147 301 C-150.93865011 299.03067494 -152.97376858 297.26878814 -156.04394531 294.18310547 C-156.53220795 293.69513489 -157.02047058 293.20716431 -157.52352905 292.70440674 C-159.12984962 291.09669725 -160.72897713 289.48202899 -162.328125 287.8671875 C-163.44298317 286.74859765 -164.55828487 285.63044971 -165.67401123 284.51272583 C-168.60470609 281.57440675 -171.52934422 278.63013045 -174.45275879 275.68457031 C-177.43882725 272.67801738 -180.43058859 269.67714118 -183.421875 266.67578125 C-189.28683456 260.78939314 -195.14540732 254.896699 -201 249 C-199.17777728 242.69228633 -197.17193737 236.51607102 -194.8203125 230.38671875 C-194.52567108 229.61044632 -194.23102966 228.83417389 -193.92745972 228.03437805 C-192.99655548 225.58416784 -192.06085891 223.13582141 -191.125 220.6875 C-190.50619639 219.06066629 -189.88770478 217.43371386 -189.26953125 215.80664062 C-185.86862298 206.86254372 -182.44283295 197.92804132 -179 189 C-176 189 -176 189 -174.36584949 190.26500702 C-173.77129302 190.86232887 -173.17673655 191.45965073 -172.56416321 192.07507324 C-171.87849274 192.75661972 -171.19282227 193.4381662 -170.4863739 194.1403656 C-169.73974991 194.89777542 -168.99312592 195.65518524 -168.22387695 196.43554688 C-167.43339966 197.22558609 -166.64292236 198.01562531 -165.82849121 198.8296051 C-163.20791809 201.45227434 -160.59814068 204.08542267 -157.98828125 206.71875 C-156.17718246 208.53544179 -154.36542178 210.35147396 -152.55302429 212.16687012 C-148.26577802 216.46441474 -143.98527987 220.76857608 -139.70795268 225.0759902 C-134.8384367 229.97901405 -129.96042061 234.87354319 -125.08166182 239.76736736 C-115.04493636 249.83546817 -105.01896288 259.91422473 -95 270 C-102.51341531 291.56565924 -102.51341531 291.56565924 -105.7265625 300.1640625 C-106.19204498 301.41660072 -106.19204498 301.41660072 -106.66693115 302.69444275 C-107.65061755 305.33883967 -108.63743863 307.98204799 -109.625 310.625 C-110.13658661 311.99602371 -110.13658661 311.99602371 -110.6585083 313.39474487 C-113.09852649 319.93251704 -115.54734905 326.46695795 -118 333 C-118.3287915 333.87662292 -118.65758301 334.75324585 -118.99633789 335.65643311 C-120.83237271 340.55003405 -122.67495098 345.4410698 -124.52850342 350.32806396 C-125.08986992 351.80986266 -125.64950035 353.29232029 -126.20733643 354.77545166 C-126.97407742 356.81199324 -127.7477046 358.8457759 -128.5234375 360.87890625 C-129.1719165 362.58929077 -129.1719165 362.58929077 -129.83349609 364.33422852 C-131 367 -131 367 -133 369 C-133.7213916 368.27638779 -134.4427832 367.55277557 -135.18603516 366.80723572 C-142.00917999 359.96375459 -148.83501289 353.12296464 -155.66343689 346.28475094 C-159.17328618 342.76969938 -162.68220592 339.25373056 -166.18896484 335.7355957 C-169.57783618 332.33580069 -172.96919664 328.93850656 -176.36224365 325.5428791 C-177.65158692 324.25169859 -178.94005479 322.95964327 -180.2276001 321.66666985 C-188.91166357 312.94701413 -188.91166357 312.94701413 -198.05615234 304.71800232 C-202.36274592 300.91176898 -206.35515183 296.76520294 -210.40625 292.69140625 C-211.38108645 291.7146999 -212.35614749 290.73821766 -213.3314209 289.76194763 C-215.87186301 287.21772539 -218.40928509 284.67051264 -220.94604492 282.12261963 C-223.54551127 279.51284118 -226.14788494 276.90596518 -228.75 274.29882812 C-233.83614918 269.20202128 -238.9191047 264.10204492 -244 259 C-238.49565954 243.07815596 -232.74778837 227.24994251 -226.9375 211.4375 C-226.70431942 210.80272358 -226.47113884 210.16794716 -226.23089218 209.51393509 C-223.26200079 201.43220396 -220.28812076 193.35231825 -217.31085873 185.27366734 C-215.49709573 180.35143561 -213.68696254 175.42787807 -211.87792969 170.50390625 C-209.59389649 164.28800804 -207.30296704 158.07469583 -205.00412464 151.86425877 C-203.78972442 148.58324348 -202.57799009 145.30130548 -201.37301636 142.01681519 C-200.03526169 138.37104688 -198.68430685 134.73025267 -197.33203125 131.08984375 C-196.93611786 130.00521851 -196.54020447 128.92059326 -196.1322937 127.80310059 C-195.57724655 126.31876526 -195.57724655 126.31876526 -195.01098633 124.80444336 C-194.53427238 123.51370155 -194.53427238 123.51370155 -194.04792786 122.19688416 C-192.9669501 119.93071394 -191.80075309 118.71060931 -190 117 C-171.70779418 135.12882799 -153.43554812 153.27756097 -135.18698788 171.45032692 C-126.71377029 179.8874196 -118.23409472 188.31782688 -109.73901367 196.73291016 C-102.33643561 204.06581146 -94.94616195 211.41085251 -87.57052523 218.77085531 C-83.66315724 222.66908168 -79.74982162 226.56086929 -75.82169914 230.43819046 C-72.12698368 234.08550642 -68.44890457 237.7487921 -64.78309441 241.42515182 C-63.43264394 242.77367146 -62.07615253 244.1161717 -60.7133522 245.45220947 C-58.85726337 247.27361018 -57.02387669 249.11517646 -55.19468689 250.96353149 C-54.64704129 251.49078721 -54.09939568 252.01804292 -53.53515476 252.56127608 C-52.06338406 254.07528114 -52.06338406 254.07528114 -50 257 C-50.15122593 261.94050252 -52.1141669 266.37204599 -53.89453125 270.9453125 C-54.19329666 271.72619736 -54.49206207 272.50708221 -54.79988098 273.31163025 C-55.79870659 275.91818806 -56.80559602 278.52155326 -57.8125 281.125 C-58.5315797 282.99647427 -59.2501546 284.86814256 -59.96826172 286.73999023 C-61.50732709 290.74865564 -63.04991158 294.75594221 -64.59521484 298.76220703 C-66.9826704 304.95228808 -69.36114172 311.14579522 -71.73828125 317.33984375 C-75.91678398 328.22399675 -80.10515743 339.10432881 -84.296875 349.98339844 C-86.15725814 354.81178676 -88.01656431 359.6405884 -89.875 364.46972656 C-92.07546186 370.18755123 -94.27722207 375.90487416 -96.48039818 381.62165356 C-97.65004071 384.65667684 -98.81908933 387.69192615 -99.98712158 390.72756958 C-106.19908148 406.86967075 -112.53529374 422.9573934 -119 439 C-121.82477888 437.71341146 -123.87904593 436.37037801 -126.06905746 434.17703819 C-126.94314416 433.30892464 -126.94314416 433.30892464 -127.83488917 432.42327344 C-128.46524428 431.78709266 -129.09559938 431.15091187 -129.74505615 430.49545288 C-130.76086191 429.4822104 -130.76086191 429.4822104 -131.797189 428.44849837 C-134.06977063 426.17921631 -136.33512078 423.90284982 -138.60058594 421.62646484 C-140.22634151 420.00014526 -141.85253735 418.37426568 -143.47914124 416.74879456 C-147.8985427 412.32996799 -152.31174136 407.90499268 -156.723876 403.47891188 C-161.33409775 398.85620574 -165.94996645 394.23914538 -170.56524658 389.62149048 C-178.31250965 381.8687132 -186.05626938 374.11245259 -193.79736328 366.35351562 C-201.77060514 358.36191474 -209.74594561 350.37241787 -217.72412109 342.38574219 C-218.46182616 341.64724895 -218.46182616 341.64724895 -219.21443436 340.89383666 C-221.68168915 338.42397178 -224.1489853 335.95414822 -226.61630201 333.4843452 C-247.08394967 312.99596532 -267.54426634 292.50027464 -288 272 C-287.53705569 270.43405351 -287.07225512 268.86865574 -286.60670471 267.30348206 C-286.34807427 266.43169091 -286.08944384 265.55989977 -285.82297611 264.66169071 C-284.50318992 260.39320394 -282.95738751 256.21468669 -281.40234375 252.02734375 C-281.05627579 251.08786392 -280.71020782 250.14838409 -280.35365295 249.18043518 C-279.21768545 246.09843439 -278.07756894 243.0179857 -276.9375 239.9375 C-276.13054116 237.75011737 -275.32390649 235.56261512 -274.51757812 233.375 C-272.84353879 228.8340089 -271.1681111 224.2935337 -269.49169922 219.75341797 C-266.01933728 210.34622296 -262.56399251 200.9327876 -259.10852051 191.51937866 C-257.62063796 187.46669692 -256.13173577 183.41439009 -254.64285278 179.36207581 C-250.81123964 168.93342394 -246.98240056 158.50375699 -243.15594482 148.07321167 C-241.24985046 142.87833196 -239.3418047 137.68418558 -237.42919922 132.49169922 C-236.69365417 130.49447746 -235.95813946 128.49724453 -235.22265625 126.5 C-234.86552551 125.53031281 -234.50839478 124.56062561 -234.14044189 123.56155396 C-232.09347943 117.99632712 -230.0653375 112.42476752 -228.05665588 106.84561157 C-226.86367143 103.53581083 -225.66145887 100.22940787 -224.45767212 96.92352295 C-223.90923567 95.4096092 -223.3653133 93.89405135 -222.82626343 92.37677002 C-222.0961051 90.32235748 -221.35075479 88.27409512 -220.6015625 86.2265625 C-219.98788818 84.51847412 -219.98788818 84.51847412 -219.36181641 82.77587891 C-216.46769751 76.87660823 -210.89881177 75.65271521 -205.05859375 73.55078125 C-204.16030853 73.22125961 -203.26202332 72.89173798 -202.33651733 72.55223083 C-199.37235651 71.46625787 -196.40492446 70.38951937 -193.4375 69.3125 C-191.35933736 68.55252791 -189.28146015 67.79177489 -187.20385742 67.03027344 C-183.99416956 65.85398777 -180.78429321 64.67824428 -177.57350159 63.50497437 C-167.86530431 59.957308 -158.1757359 56.36074972 -148.49124146 52.7489624 C-144.02210833 51.08232304 -139.55199718 49.41831041 -135.08203125 47.75390625 C-134.22067062 47.43309082 -133.35931 47.11227539 -132.47184753 46.78173828 C-125.00761035 44.00188035 -117.54088516 41.22875147 -110.07357788 38.45715332 C-97.09834533 33.64111486 -84.12716789 28.81426058 -71.15844727 23.98071289 C-66.74555213 22.33614087 -62.33194367 20.69350524 -57.91772461 19.05249023 C-48.83238367 15.67365358 -39.74792258 12.29397715 -30.68875122 8.84545898 C-27.40425531 7.59548982 -24.1170493 6.35274602 -20.82958984 5.1105957 C-19.33213809 4.54215747 -17.83616759 3.96979987 -16.34179688 3.39331055 C-14.31602271 2.61190748 -12.28573601 1.84361386 -10.25390625 1.078125 C-9.13314697 0.64918945 -8.0123877 0.22025391 -6.85766602 -0.22167969 C-3.83696644 -1.04440419 -2.86635645 -1.0226905 0 0 Z " fill="#040201" transform="translate(320,46)"/>
<path d="M0 0 C1.23130145 3.69390436 0.67003265 4.34818644 -0.9296875 7.79296875 C-1.38577393 8.79303955 -1.84186035 9.79311035 -2.31176758 10.82348633 C-2.82763428 11.93361084 -3.34350098 13.04373535 -3.875 14.1875 C-5.00438066 16.67314657 -6.1311157 19.15982284 -7.25390625 21.6484375 C-7.55558212 22.31537125 -7.857258 22.98230499 -8.16807556 23.66944885 C-11.84616451 31.82825764 -15.32661808 40.07022326 -18.8125 48.3125 C-19.52389975 49.99198886 -20.2354091 51.6714313 -20.94702148 53.35083008 C-22.07544948 56.01427829 -23.20369488 58.67780309 -24.33137512 61.34156799 C-29.34949057 73.19338511 -34.39377124 85.03406598 -39.4375 96.875 C-39.9259137 98.02181244 -40.41432739 99.16862488 -40.9175415 100.35018921 C-49.2624094 119.94272007 -57.63720204 139.52226214 -66.03843689 159.09068298 C-68.27048387 164.29224724 -70.49157892 169.49838035 -72.70703125 174.70703125 C-73.54414008 176.67209486 -74.38147648 178.63706133 -75.21890259 180.60198975 C-75.97320412 182.37453203 -76.72433186 184.14842388 -77.4753418 185.92236328 C-77.916604 186.95731934 -78.35786621 187.99227539 -78.8125 189.05859375 C-79.19019531 189.94861084 -79.56789063 190.83862793 -79.95703125 191.75561523 C-82.24457211 196.67821897 -84.20463841 197.72474814 -89.19262695 199.55273438 C-89.82908646 199.78909607 -90.46554596 200.02545776 -91.12129211 200.26898193 C-93.24029106 201.05329004 -95.36416978 201.82340683 -97.48828125 202.59375 C-98.98570064 203.14513106 -100.48278052 203.69743493 -101.97953796 204.25061035 C-105.94864199 205.71490879 -109.92193366 207.16749038 -113.89630127 208.61743164 C-117.82180093 210.05130451 -121.74390981 211.49437493 -125.66601562 212.9375 C-127.21180493 213.5061912 -128.75759656 214.0748761 -130.3033905 214.64355469 C-131.06596853 214.9241272 -131.82854656 215.20469971 -132.61423302 215.49377441 C-134.93208106 216.34606649 -137.25039999 217.19706734 -139.56880188 218.04785156 C-152.69818098 222.8692204 -165.77803749 227.81342545 -178.84609985 232.79858398 C-183.53299094 234.58396264 -188.22511819 236.35535713 -192.91796875 238.125 C-194.61686922 238.76601272 -196.31576247 239.40704455 -198.01464844 240.0480957 C-198.8570105 240.36589996 -199.69937256 240.68370422 -200.56726074 241.01113892 C-208.31729133 243.93594955 -216.0654321 246.86576617 -223.81365967 249.79534912 C-225.98991705 250.61812073 -228.16622975 251.44074604 -230.34259033 252.26324463 C-237.20334998 254.85619615 -244.06301534 257.45200988 -250.92129517 260.05151367 C-253.12177722 260.88510449 -255.32259773 261.71780246 -257.52377319 262.54956055 C-260.60532252 263.7141905 -263.68560973 264.88210137 -266.765625 266.05078125 C-267.66998795 266.39176346 -268.57435089 266.73274567 -269.50611877 267.08406067 C-274.48853092 268.97897544 -279.36380934 271.01077554 -284.19573975 273.26383972 C-286 274 -286 274 -288 274 C-286.00251059 267.02194889 -283.68908701 260.22466453 -281.12109375 253.4375 C-280.56884125 251.96635994 -280.56884125 251.96635994 -280.00543213 250.46549988 C-278.81943641 247.30907463 -277.62859782 244.15450306 -276.4375 241 C-275.61349701 238.81037465 -274.78968608 236.62067702 -273.96606445 234.4309082 C-269.54239186 222.68067698 -265.08005382 210.94664173 -260.54541016 199.23876953 C-256.65599692 189.17000755 -252.9136023 179.04763413 -249.16455078 168.92602539 C-243.44096284 153.47480476 -237.66381425 138.0439306 -231.86306763 122.621521 C-229.9030853 117.40902131 -227.95065786 112.19375754 -226.00312805 106.97659302 C-224.71096759 103.51795555 -223.41431812 100.06101246 -222.1166687 96.60443115 C-221.50108953 94.96179493 -220.88739672 93.31845047 -220.27566528 91.67437744 C-219.43227735 89.40860686 -218.58220522 87.1454554 -217.73046875 84.8828125 C-217.35808578 83.87492676 -217.35808578 83.87492676 -216.97817993 82.84667969 C-215.91836655 80.04979042 -215.14120032 78.14120032 -213 76 C-211.328125 75.27661133 -211.328125 75.27661133 -209.25 74.58203125 C-208.43772949 74.30576904 -207.62545898 74.02950684 -206.78857422 73.74487305 C-205.86834473 73.43718994 -204.94811523 73.12950684 -204 72.8125 C-201.87696763 72.08779957 -199.7546276 71.36106919 -197.6328125 70.6328125 C-196.42786133 70.2193457 -195.22291016 69.80587891 -193.98144531 69.37988281 C-186.25686893 66.71301289 -178.56896329 63.94109593 -170.875 61.1875 C-169.08268929 60.54661127 -167.29037145 59.90574251 -165.49804688 59.26489258 C-148.55084244 53.20340402 -131.60942539 47.12572995 -114.66748047 41.04956055 C-100.29243427 35.89443352 -85.91320684 30.75118401 -71.53009033 25.61862183 C-47.67706476 17.1060759 -23.83913364 8.55135481 0 0 Z " fill="#020000" transform="translate(504,231)"/>
<path d="M0 0 C2.81049268 1.81757897 4.976653 3.99234822 7.33853149 6.36569214 C7.84630127 6.87316986 8.35407104 7.38064758 8.87722778 7.90350342 C10.54847752 9.57614255 12.21253799 11.25574602 13.87661743 12.93551636 C15.0363162 14.09894664 16.19645836 15.26193511 17.35702515 16.42449951 C20.40608595 19.48118585 23.44909207 22.54383129 26.49087524 25.60775757 C29.59759156 28.7349555 32.70999789 31.85647893 35.82192993 34.97848511 C41.9238666 41.10185266 48.01941841 47.23152746 54.11099243 53.36520386 C50.29963844 57.17655785 44.48116845 58.42514105 39.47232056 60.27072144 C37.37752744 61.04657971 35.29136661 61.84307213 33.20474243 62.64059448 C31.86668113 63.13733306 30.52815312 63.63281666 29.18911743 64.12692261 C27.97643188 64.58026978 26.76374634 65.03361694 25.51431274 65.5007019 C21.63561381 66.48595821 19.88043437 66.72806016 16.11099243 65.36520386 C13.24190826 63.14164044 10.77401395 60.58559997 8.26333618 57.97067261 C7.16185997 56.85502678 7.16185997 56.85502678 6.03813171 55.71684265 C3.69616171 53.34032412 1.37192416 50.94733714 -0.95150757 48.55270386 C-3.28185023 46.17229289 -5.61571682 43.79541949 -7.95185852 41.42070007 C-9.40291137 39.94338419 -10.85001083 38.46217184 -12.29258728 36.97657776 C-15.06582427 34.13531076 -17.75374444 31.47234023 -20.8711853 29.00314331 C-21.53706665 28.46262329 -22.202948 27.92210327 -22.88900757 27.36520386 C-22.88900757 26.70520386 -22.88900757 26.04520386 -22.88900757 25.36520386 C-23.44072632 25.14090698 -23.99244507 24.91661011 -24.56088257 24.68551636 C-27.601125 22.96135202 -29.7032643 20.74004564 -32.13900757 18.24020386 C-33.03103882 17.33012573 -33.92307007 16.42004761 -34.84213257 15.48239136 C-35.51760132 14.78371948 -36.19307007 14.08504761 -36.88900757 13.36520386 C-34.20942562 10.68562191 -31.10311213 9.76407247 -27.61557007 8.47457886 C-26.53534073 8.07217987 -26.53534073 8.07217987 -25.43328857 7.66165161 C-23.90958838 7.09715325 -22.3847006 6.53585165 -20.85873413 5.97750854 C-18.52443014 5.1190369 -16.1991571 4.23866494 -13.87338257 3.35739136 C-12.39211687 2.81174727 -10.91036103 2.26743156 -9.42807007 1.72457886 C-8.7331546 1.45804504 -8.03823914 1.19151123 -7.32226562 0.91690063 C-2.45411161 -0.8246979 -2.45411161 -0.8246979 0 0 Z " fill="#030100" transform="translate(288.8890075683594,135.63479614257813)"/>
<path d="M0 0 C-0.04125 0.763125 -0.0825 1.52625 -0.125 2.3125 C-0.22080824 5.22718416 -0.22080824 5.22718416 2 8 C-1 8 -1 8 -2.38671875 6.6875 C-3.59114583 5.125 -4.79557292 3.5625 -6 2 C-2.25 0 -2.25 0 0 0 Z " fill="#EBCD44" transform="translate(185,155)"/>
<path d="M0 0 C0.66 0.66 1.32 1.32 2 2 C1.6442194 5.37991574 0.64284201 8.04288438 -1 11 C-1.66 10.67 -2.32 10.34 -3 10 C-2.01 6.7 -1.02 3.4 0 0 Z " fill="#E7C642" transform="translate(211,457)"/>
<path d="M0 0 C2 2 2 2 2.1953125 4.1640625 C2.17210937 4.97617187 2.14890625 5.78828125 2.125 6.625 C2.10695312 7.44226563 2.08890625 8.25953125 2.0703125 9.1015625 C2.03550781 10.04128906 2.03550781 10.04128906 2 11 C0.68 10.01 -0.64 9.02 -2 8 C-1.47731534 5.23723823 -0.89130413 2.6739124 0 0 Z " fill="#E1C243" transform="translate(144,280)"/>
<path d="M0 0 C0.66 0 1.32 0 2 0 C2.36923077 6.52307692 2.36923077 6.52307692 0.5 8.9375 C0.005 9.288125 -0.49 9.63875 -1 10 C-2.46726798 6.18510326 -1.43336419 3.70988378 0 0 Z " fill="#E9C843" transform="translate(89,220)"/>
<path d="M0 0 C0 0.99 0 1.98 0 3 C-3.13498292 4.85776765 -5.37471432 5.20140476 -9 5 C-6.47043472 1.9083091 -3.77545388 1.09068668 0 0 Z " fill="#E7CA43" transform="translate(373,445)"/>
<path d="M0 0 C0.99 0.66 1.98 1.32 3 2 C2.01 4.31 1.02 6.62 0 9 C-1.125 7.3125 -1.125 7.3125 -2 5 C-1.125 2.25 -1.125 2.25 0 0 Z " fill="#EAC842" transform="translate(63,291)"/>
<path d="M0 0 C0.66 0 1.32 0 2 0 C1.67 2.64 1.34 5.28 1 8 C0.34 8 -0.32 8 -1 8 C-1 8.66 -1 9.32 -1 10 C-1.66 10 -2.32 10 -3 10 C-2.01 6.7 -1.02 3.4 0 0 Z " fill="#DFC343" transform="translate(82,239)"/>
<path d="M0 0 C0.66 0 1.32 0 2 0 C1.7452486 1.31571603 1.47065859 2.62760376 1.1875 3.9375 C1.03667969 4.66839844 0.88585937 5.39929688 0.73046875 6.15234375 C0.48941406 6.76207031 0.24835938 7.37179687 0 8 C-0.99 8.33 -1.98 8.66 -3 9 C-2.01 6.03 -1.02 3.06 0 0 Z " fill="#E8CB44" transform="translate(452,355)"/>
<path d="M0 0 C0.95465783 2.16967689 1.14401212 3.56328793 0.3984375 5.82421875 C-0.35870385 7.5684743 -1.17609198 9.28627131 -2 11 C-2.66 11 -3.32 11 -4 11 C-2.7874262 7.27566618 -1.49140021 3.62197194 0 0 Z " fill="#E3C844" transform="translate(446,369)"/>
<path d="M0 0 C0.66 0 1.32 0 2 0 C1.01 2.97 0.02 5.94 -1 9 C-1.66 9 -2.32 9 -3 9 C-2.01 6.03 -1.02 3.06 0 0 Z " fill="#DCC142" transform="translate(434,397)"/>
<path d="M0 0 C0 0.99 0 1.98 0 3 C-1.98 3.66 -3.96 4.32 -6 5 C-6.33 4.01 -6.66 3.02 -7 2 C-2.25 0 -2.25 0 0 0 Z " fill="#E7C744" transform="translate(396,249)"/>
<path d="M0 0 C1.98 1.65 3.96 3.3 6 5 C5.01 5.66 4.02 6.32 3 7 C2.01 6.67 1.02 6.34 0 6 C0.66 6 1.32 6 2 6 C1.34 4.02 0.68 2.04 0 0 Z " fill="#F5D94C" transform="translate(372,192)"/>
<path d="M0 0 C0.95904856 3.83619425 0.91892116 5.32431536 0 9 C-0.99 8.67 -1.98 8.34 -3 8 C-2.01 5.36 -1.02 2.72 0 0 Z " fill="#E1C442" transform="translate(477,296)"/>
<path d="M0 0 C0.66 1.32 1.32 2.64 2 4 C0.75 6.75 0.75 6.75 -1 9 C-1.66 9 -2.32 9 -3 9 C-2.01 6.03 -1.02 3.06 0 0 Z " fill="#DEC143" transform="translate(486,275)"/>
<path d="M0 0 C0.95904856 3.83619425 0.91892116 5.32431536 0 9 C-0.99 9.33 -1.98 9.66 -3 10 C-2.01 6.7 -1.02 3.4 0 0 Z " fill="#DEC242" transform="translate(115,150)"/>
</svg>
